<svg xmlns="http://www.w3.org/2000/svg" viewBox="0 0 897 16" width="897" height="16">
	<style>
		tspan { white-space:pre }
		.shp0 { opacity: 0.478;fill: #ffffff } 
		.shp1 { fill: #ec9e03 } 
	</style>
	<g id="section_1">
		<path id="Rounded Rectangle 2" class="shp0" d="M8.5 1L889.5 1C893.64 1 897 4.36 897 8.5C897 12.64 893.64 16 889.5 16L8.5 16C4.36 16 1 12.64 1 8.5C1 4.36 4.36 1 8.5 1Z" />
		<path id="Rounded Rectangle 3" class="shp1" d="M255.5 1L437.5 1C441.64 1 445 4.36 445 8.5C445 12.64 441.64 16 437.5 16L255.5 16C251.36 16 248 12.64 248 8.5C248 4.36 251.36 1 255.5 1Z" />
	</g>
</svg>